<?xml version="1.0"?>
<svg xmlns="http://www.w3.org/2000/svg" id="Layer_1" data-name="Layer 1" viewBox="0 0 512 512" width="512" height="512"><title>user Id</title><polygon points="191.29 62.55 191.29 31 320.71 31 320.71 62.55 320.71 92.41 191.29 92.41 191.29 62.55" style="fill:#f8ec7d"/><path d="M232.9,292.61l-38.1,12.35a27.131,27.131,0,0,0-17.92,18.42c-.09.34-.18.68-.26,1.02a25.782,25.782,0,0,0-.62,5.81v26.02H336V330.21a25.782,25.782,0,0,0-.62-5.81c-.08-.34-.17-.68-.26-1.02a27.131,27.131,0,0,0-17.92-18.42l-38.1-12.35-.05-.02V271.7a48.2,48.2,0,0,0,24.4-33.51l2.69-9.23v-.07a13.033,13.033,0,0,0,10.76-12.83,13.3,13.3,0,0,0-.37-3.11,9.8,9.8,0,0,0-8.7-7.46V179.14a51.82,51.82,0,0,0-103.64,0v26.35a10.126,10.126,0,0,0-5.41,2.19,9.661,9.661,0,0,0-3.31,5.27,13.3,13.3,0,0,0-.37,3.11,13.039,13.039,0,0,0,10.76,12.83v.07l2.69,9.23a48.238,48.238,0,0,0,24.4,33.51v20.89ZM414.72,102.55V441a40,40,0,0,1-40,40H137.28a40,40,0,0,1-40-40V102.55a40,40,0,0,1,40-40h54.01V92.41H320.71V62.55h54.01A40,40,0,0,1,414.72,102.55Z" style="fill:#6fe3ff"/><path d="M336,330.21v26.02H176V330.21a25.782,25.782,0,0,1,.62-5.81c.08-.34.17-.68.26-1.02a27.131,27.131,0,0,1,17.92-18.42l38.1-12.35a48.533,48.533,0,0,0,46.2,0l38.1,12.35a27.131,27.131,0,0,1,17.92,18.42c.09.34.18.68.26,1.02A25.782,25.782,0,0,1,336,330.21Z" style="fill:#e48e66"/><path d="M279.05,271.7a48.28,48.28,0,0,1-70.5-33.51l-2.69-9.23v-.07a13.039,13.039,0,0,1-10.76-12.83,13.3,13.3,0,0,1,.37-3.11,9.661,9.661,0,0,1,3.31-5.27,10.126,10.126,0,0,1,5.41-2.19.09.09,0,0,1,.05-.01,18.33,18.33,0,0,0,18.34-18.33v-7.58a101.8,101.8,0,0,0,11.26.31l.01.97c29.7,26.46,73.98,24.76,73.98,24.76v-.12a9.8,9.8,0,0,1,8.7,7.46,13.3,13.3,0,0,1,.37,3.11,13.033,13.033,0,0,1-10.76,12.83v.07l-2.69,9.23a48.2,48.2,0,0,1-24.4,33.51Z" style="fill:#f7caa5"/><path d="M233.84,179.88a101.8,101.8,0,0,1-11.26-.31v7.58a18.33,18.33,0,0,1-18.34,18.33.09.09,0,0,0-.05.01V179.14a51.82,51.82,0,0,1,103.64,0v26.47s-44.28,1.7-73.98-24.76Z" style="fill:#5f6768"/><path d="M279.05,292.59l.05.02a48.533,48.533,0,0,1-46.2,0l.05-.02V271.7a48.263,48.263,0,0,0,46.1,0Z" style="fill:#edb288"/><path d="M340.87,403.29H307.83a7,7,0,0,1,0-14h33.04a7,7,0,0,1,0,14Z" style="fill:#2561a1"/><path d="M279.7,403.29H171.13a7,7,0,0,1,0-14H279.7a7,7,0,0,1,0,14Z" style="fill:#2561a1"/><path d="M340.87,447.29H283.83a7,7,0,0,1,0-14h57.04a7,7,0,0,1,0,14Z" style="fill:#2561a1"/><path d="M259.7,447.29H229.26a7,7,0,1,1,0-14H259.7a7,7,0,0,1,0,14Z" style="fill:#2561a1"/><path d="M204.19,447.29H171.13a7,7,0,0,1,0-14h33.06a7,7,0,0,1,0,14Z" style="fill:#2561a1"/></svg>
