<svg id="Capa_1" enable-background="new 0 0 512 512" height="512" viewBox="0 0 512 512" width="512" xmlns="http://www.w3.org/2000/svg"><g><g><path d="m265.311 117.355-38.073-110.411c-1.433-4.156-5.344-6.944-9.739-6.944h-25.527c-4.246 0-7.228 4.182-5.843 8.196l37.641 109.159z" fill="#ffd064"/></g><g><path d="m372.317 117.358h-232.635c-11.466 0-20.769 9.292-20.769 20.769v353.105c0 11.466 9.303 20.768 20.769 20.768h232.635c11.466 0 20.769-9.303 20.769-20.768v-353.105c0-11.477-9.303-20.769-20.769-20.769zm-81.003 66.467h-70.629c-9.169 0-16.617-7.448-16.617-16.617 0-9.179 7.448-16.617 16.617-16.617h14.546l14.835-6.222 26.702 6.222h14.546c9.169 0 16.617 7.438 16.617 16.617 0 9.169-7.448 16.617-16.617 16.617z" fill="#90d8f9"/></g><g><path d="m372.316 117.355h-27.002c11.471 0 20.771 9.299 20.771 20.771v353.103c0 11.471-9.299 20.771-20.771 20.771h27.002c11.471 0 20.771-9.299 20.771-20.771v-353.103c0-11.472-9.3-20.771-20.771-20.771z" fill="#75cef9"/></g><g><path d="m276.77 150.588h-41.542l49.533-143.644c1.433-4.156 5.344-6.944 9.739-6.944h25.527c4.246 0 7.228 4.182 5.843 8.196z" fill="#ffe07d"/></g><g><path d="m296.586 352.065h-81.173c-5.69 0-10.302-4.612-10.302-10.302v-114.406c0-5.69 4.612-10.302 10.302-10.302h81.173c5.69 0 10.302 4.612 10.302 10.302v114.407c0 5.689-4.612 10.301-10.302 10.301z" fill="#e4f6ff"/></g><g><path d="m341.227 418.531h-170.455c-4.552 0-8.241-3.69-8.241-8.241v-16.75c0-4.552 3.69-8.241 8.241-8.241h170.454c4.552 0 8.241 3.69 8.241 8.241v16.75c.001 4.552-3.689 8.241-8.24 8.241z" fill="#df75a5"/></g><g><path d="m328.698 459.491h-145.397c-4.268 0-7.726-3.459-7.726-7.726s3.459-7.726 7.726-7.726h145.396c4.268 0 7.726 3.459 7.726 7.726s-3.458 7.726-7.725 7.726z" fill="#5766cb"/></g></g></svg>