<?xml version="1.0" encoding="iso-8859-1"?>
<!-- Generator: Adobe Illustrator 19.0.0, SVG Export Plug-In . SVG Version: 6.00 Build 0)  -->
<svg version="1.1" id="Capa_1" xmlns="http://www.w3.org/2000/svg" xmlns:xlink="http://www.w3.org/1999/xlink" x="0px" y="0px"
	 viewBox="0 0 511.999 511.999" style="enable-background:new 0 0 511.999 511.999;" xml:space="preserve">
<path style="fill:#7C828C;" d="M283.729,0h-55.536c-8.314,0-15.055,6.741-15.055,15.055v57.708c0,8.314,6.741,15.055,15.055,15.055
	s47.222-0.011,55.536-0.011c8.314,0,15.055-6.741,15.055-15.055V15.055C298.784,6.741,292.043,0,283.729,0z"/>
<path style="fill:#70757F;" d="M283.729,0H256v87.812c11.792-0.003,23.576-0.005,27.728-0.005c8.314,0,15.055-6.741,15.055-15.055
	V15.055C298.784,6.741,292.043,0,283.729,0z"/>
<path style="fill:#31C9F7;" d="M115.977,133.526l-30.938-30.937c5.486-2.274,11.427-3.426,17.533-3.329
	c8.335,0.154,15.171-6.474,15.318-14.787c0.147-8.313-6.475-15.171-14.788-15.318c-19.733-0.354-38.405,7.008-52.598,20.71
	c-14.194,13.702-22.202,32.111-22.548,51.836c-0.147,8.313,6.475,15.171,14.787,15.317c0.09,0.001,0.181,0.002,0.271,0.002
	c8.191,0,14.902-6.567,15.047-14.79c0.119-6.806,1.79-13.342,4.817-19.222l31.809,31.809c2.94,2.94,6.793,4.41,10.645,4.41
	c3.852,0,7.706-1.469,10.645-4.41C121.856,148.937,121.856,139.404,115.977,133.526z"/>
<path style="fill:#80DBFF;" d="M417.253,122.7c-43.072-43.073-100.34-66.794-161.253-66.794s-118.181,23.72-161.253,66.793
	c-43.073,43.073-66.794,100.34-66.794,161.253s23.72,118.181,66.794,161.253c43.072,43.073,100.34,66.794,161.253,66.794
	s118.181-23.72,161.253-66.794c43.073-43.072,66.794-100.34,66.794-161.253C484.046,223.04,460.326,165.772,417.253,122.7z"/>
<path style="fill:#31C9F7;" d="M417.253,122.7C374.18,79.627,316.913,55.907,256,55.907v456.092
	c60.913,0,118.18-23.72,161.252-66.794c43.073-43.072,66.794-100.34,66.794-161.253C484.046,223.04,460.326,165.772,417.253,122.7z"
	/>
<path style="fill:#E3F6FF;" d="M256,111.577c-95.05,0-172.378,77.328-172.378,172.377c0,95.05,77.328,172.378,172.378,172.378
	c95.049,0,172.377-77.328,172.377-172.378C428.377,188.905,351.049,111.577,256,111.577z"/>
<path style="fill:#BBECFF;" d="M256,111.577v344.754c95.049,0,172.377-77.328,172.377-172.378
	C428.377,188.905,351.049,111.577,256,111.577z"/>
<path style="fill:#7C828C;" d="M256,143.523c-8.314,0-15.055,6.741-15.055,15.055v25.091c0,8.314,6.741,15.055,15.055,15.055
	c8.314,0,15.055-6.741,15.055-15.055v-25.091C271.055,150.264,264.315,143.523,256,143.523z"/>
<g>
	<path style="fill:#70757F;" d="M256,143.523v55.201c8.314,0,15.055-6.741,15.055-15.055v-25.091
		C271.055,150.264,264.315,143.523,256,143.523z"/>
	<path style="fill:#70757F;" d="M381.376,268.899h-25.091c-8.314,0-15.055,6.741-15.055,15.055c0,8.314,6.741,15.055,15.055,15.055
		h25.091c8.314,0,15.055-6.741,15.055-15.055C396.431,275.639,389.69,268.899,381.376,268.899z"/>
</g>
<path style="fill:#7C828C;" d="M256,369.183c-8.314,0-15.055,6.741-15.055,15.055v25.091c0,8.314,6.741,15.055,15.055,15.055
	c8.314,0,15.055-6.741,15.055-15.055v-25.091C271.055,375.923,264.315,369.183,256,369.183z"/>
<path style="fill:#70757F;" d="M256,369.183c-0.013,0-0.026,0.002-0.039,0.002v55.197c0.013,0,0.026,0.002,0.039,0.002
	c8.314,0,15.055-6.741,15.055-15.055v-25.091C271.055,375.923,264.315,369.183,256,369.183z"/>
<g>
	<path style="fill:#7C828C;" d="M155.716,268.899h-25.091c-8.314,0-15.055,6.741-15.055,15.055c0,8.314,6.741,15.055,15.055,15.055
		h25.091c8.314,0,15.055-6.741,15.055-15.055C170.771,275.639,164.03,268.899,155.716,268.899z"/>
	<path style="fill:#7C828C;" d="M263.429,273.309l-80.545-80.544c-5.878-5.879-15.411-5.879-21.291,0s-5.879,15.411,0,21.291
		l80.545,80.544c2.94,2.94,6.793,4.41,10.645,4.41s7.706-1.469,10.645-4.41C269.307,288.72,269.307,279.187,263.429,273.309z"/>
</g>
<path style="fill:#70757F;" d="M256,298.649c2.721-0.593,5.312-1.935,7.428-4.051c5.879-5.879,5.879-15.411,0-21.291L256,265.88
	V298.649L256,298.649z"/>
<g>
</g>
<g>
</g>
<g>
</g>
<g>
</g>
<g>
</g>
<g>
</g>
<g>
</g>
<g>
</g>
<g>
</g>
<g>
</g>
<g>
</g>
<g>
</g>
<g>
</g>
<g>
</g>
<g>
</g>
</svg>
